<?xml version="1.0" standalone="no"?>
<!DOCTYPE svg PUBLIC "-//W3C//DTD SVG 20010904//EN"
 "http://www.w3.org/TR/2001/REC-SVG-20010904/DTD/svg10.dtd">
<svg version="1.0" xmlns="http://www.w3.org/2000/svg"
 width="1024.000000pt" height="1024.000000pt" viewBox="0 0 1024.000000 1024.000000"
 preserveAspectRatio="xMidYMid meet">
<metadata>
Created by potrace 1.11, written by Peter Selinger 2001-2013
</metadata>
<g transform="translate(0.000000,1024.000000) scale(0.100000,-0.100000)"
fill="#000000" stroke="none">
<path d="M3448 8228 c-426 -32 -715 -210 -947 -582 -50 -79 -850 -1682 -911
-1824 -61 -140 -79 -197 -110 -337 -43 -196 -47 -490 -10 -687 41 -212 93
-340 349 -861 644 -1306 683 -1379 801 -1518 180 -212 429 -351 688 -385 20
-2 66 -8 102 -13 72 -10 4287 -7 4335 3 30 6 76 14 128 23 50 8 181 50 261 83
250 104 468 325 582 588 35 81 79 237 89 315 3 23 7 62 10 87 4 33 9 1458 5
1695 l0 31 -822 -1 c-453 -1 -840 -5 -861 -9 -135 -29 -240 -129 -276 -264
-14 -49 -17 -167 -7 -227 11 -65 63 -161 109 -200 108 -94 149 -100 656 -100
l401 0 0 -55 c3 -441 -2 -840 -11 -883 -25 -114 -91 -197 -196 -243 -107 -48
-161 -50 -988 -49 -662 1 -780 4 -841 17 -135 31 -211 84 -259 182 -53 110
-54 122 -51 1281 2 589 6 1090 10 1115 28 178 60 290 116 400 32 64 116 194
142 221 13 14 147 183 248 313 29 38 59 76 66 85 7 9 56 71 108 138 52 66 102
129 110 140 8 10 108 137 222 283 286 367 315 397 408 427 45 14 130 16 710
19 363 1 675 5 695 9 97 17 192 71 235 134 60 87 71 127 71 261 -1 114 -3 130
-27 181 -47 103 -124 168 -233 200 -67 19 -1368 20 -1485 1 -360 -59 -595
-209 -852 -542 -46 -60 -338 -434 -351 -450 -7 -8 -67 -85 -133 -170 -66 -85
-211 -271 -321 -412 -180 -230 -283 -372 -336 -463 -90 -156 -166 -366 -183
-510 -2 -22 -8 -65 -13 -95 -13 -73 -12 -2445 0 -2530 14 -98 18 -120 33 -182
l13 -57 -726 3 c-399 2 -742 6 -761 10 -111 21 -186 72 -252 168 -44 65 -63
103 -333 653 -98 198 -218 443 -268 545 -50 102 -92 187 -92 190 -1 3 -43 88
-93 190 -137 279 -160 363 -156 560 3 173 35 297 123 487 105 226 798 1600
831 1648 71 103 130 143 241 161 19 3 392 7 829 8 866 3 847 2 944 61 57 34
77 53 113 106 86 125 88 338 4 470 -42 67 -124 125 -213 150 -32 10 -231 13
-813 13 -423 1 -809 -2 -857 -6z"/>
</g>
</svg>
